<svg enable-background="new 0 0 140 140" height="512" viewBox="0 0 140 140" width="512" xmlns="http://www.w3.org/2000/svg"><circle cx="70" cy="70" fill="#ffd25a" r="64"/><path d="m133.9899902 69.7399902c0 .0900879.0100098.1699219.0100098.2600098 0 35.3500977-28.6500244 64-64 64-2.289978 0-4.5499878-.1298828-6.7800293-.3598633l-28.9899902-28.9902344c-1.2699585-.8498535-2.0999756-2.2998047-2.0999756-3.9499512v-18.8200683l-3.3400269-3.3398438v-29.6401367c0-2.6098633 2.1300049-4.7399902 4.7600098-4.7597656h18.9899902v-5.1000977c0-2.4699707 2.0100098-4.4799805 4.4800415-4.4799805h25.9599609c1.2900391 0 2.4500122.5600586 3.2700195 1.4399414l8.1400146 8.1401367h12.0599976c1.2000122.0097656 2.2799683.4697266 3.1199951 1.2099609l.0100098-.0200195.1399536.1398926c.0600586.0600586.1200562.119873.1800537.1799316z" opacity=".1"/><path d="m82.9821167 34.5582962h-25.9640884c-2.4716606 0-4.482357 2.0106964-4.482357 4.4823608v8.4793396c0 .821949.6661606 1.4881134 1.4881096 1.4881134h31.9525833c.8219452 0 1.4881134-.6661644 1.4881134-1.4881134v-8.4793396c-.0000001-2.4716644-2.0106965-4.4823608-4.4823609-4.4823608zm1.506134 11.473587h-28.9763565v-6.9912262c0-.8306694.6754646-1.506134 1.506134-1.506134h25.9640884c.8306656 0 1.506134.6754646 1.506134 1.506134v6.9912262z" fill="#304651"/><path d="m32.1286812 77.3871841v23.3096085c0 2.6297684 2.1320419 4.7619553 4.7619629 4.7619553h66.2187042c2.629921 0 4.7619629-2.1321869 4.7619629-4.7619553v-23.3096085z" fill="#304651"/><path d="m106.4514313 44.138607c-24.3010025 0-48.60186 0-72.9028625 0-2.6315899.0174408-4.7626152 2.149044-4.7618885 4.7619629v29.6407738c27.0369396 6.9423981 55.3895645 6.9423981 82.426651 0-.0000763-9.8802567-.0000763-19.7605171 0-29.6407738.0010852-2.615242-2.1311093-4.7433624-4.7619-4.7619629z" fill="#293b44"/><path d="m72.7712479 78.9465027h-5.5424194c-.5789032 0-1.0481491.4693985-1.0481491 1.0480728v7.5068359c0 .5789719.4692459 1.0480728 1.0481491 1.0480728h5.5424194c.5788269 0 1.0480728-.469101 1.0480728-1.0480728v-7.5068359c0-.5786743-.4692459-1.0480728-1.0480728-1.0480728z" fill="#dad7dc"/><path d="m66.180695 84.656914h7.63861v2.132814h-7.63861z" fill="#b0b1b5"/></svg>